<?xml version="1.0" ?><!DOCTYPE svg  PUBLIC '-//W3C//DTD SVG 1.1//EN'  'http://www.w3.org/Graphics/SVG/1.1/DTD/svg11.dtd'><svg enable-background="new -70.403 0 38.625 39.469" height="39.469px" id="Layer_1" version="1.1" viewBox="-70.403 0 38.625 39.469" width="38.625px" xml:space="preserve" xmlns="http://www.w3.org/2000/svg" xmlns:xlink="http://www.w3.org/1999/xlink"><g><path d="M-38.989,11.384c-0.001-0.012-3.32-0.571-6.539,1.71c1.312-2.281,3.094-3.812,6.123-4.122   C-40.813,3.805-45.52,0-51.136,0c-4.432,0-8.305,2.373-10.435,5.913c2.729,0.119,5.606,2.18,7.405,4.506   C-55.868,9.1-58,8.307-60.321,8.307c-0.84,0-1.652,0.115-2.432,0.31c-0.002-0.022-0.009-0.042-0.011-0.065   c-0.008,0.024-0.018,0.047-0.025,0.072c-4.372,1.103-7.614,5.05-7.614,9.765c0,5.566,4.514,10.08,10.082,10.08h19.939   c4.752,0,8.604-3.852,8.604-8.604C-31.778,15.588-34.901,12.05-38.989,11.384z" fill="#363636"/><g><g><path d="M-58.355,36.469c0,1.657-1.343,3-3,3c-1.657,0-3-1.343-3-3c0-1,1-3,3-5     C-59.355,33.469-58.355,35.469-58.355,36.469z" fill="#363636"/><path d="M-48.355,36.469c0,1.657-1.343,3-3,3c-1.657,0-3-1.343-3-3c0-1,1-3,3-5     C-49.355,33.469-48.355,35.469-48.355,36.469z" fill="#363636"/><path d="M-38.355,36.469c0,1.657-1.343,3-3,3c-1.657,0-3-1.343-3-3c0-1,1-3,3-5     C-39.355,33.469-38.355,35.469-38.355,36.469z" fill="#363636"/></g></g></g></svg>